<mxfile host="app.diagrams.net" modified="2023-11-13T15:07:52.051Z" agent="Mozilla/5.0 (Windows NT 10.0; Win64; x64; rv:109.0) Gecko/20100101 Firefox/116.0" etag="wOUIv1YWywRPEmSE8sF2" version="22.1.0" type="github">
  <diagram name="Trang-1" id="8WOk82VxNDKTeJKdt3mN">
    <mxGraphModel dx="2084" dy="1895" grid="1" gridSize="10" guides="1" tooltips="1" connect="1" arrows="1" fold="1" page="1" pageScale="1" pageWidth="827" pageHeight="1169" math="0" shadow="0">
      <root>
        <mxCell id="0" />
        <mxCell id="1" parent="0" />
        <mxCell id="_pkrtM7WGQT2VM3EGbci-3" style="edgeStyle=orthogonalEdgeStyle;rounded=0;orthogonalLoop=1;jettySize=auto;html=1;entryX=0.5;entryY=0;entryDx=0;entryDy=0;" parent="1" source="_pkrtM7WGQT2VM3EGbci-1" target="h4dxqBW4cxkd71x_Y7fE-1" edge="1">
          <mxGeometry relative="1" as="geometry">
            <mxPoint x="390" y="160" as="targetPoint" />
          </mxGeometry>
        </mxCell>
        <mxCell id="_pkrtM7WGQT2VM3EGbci-1" value="start" style="ellipse;whiteSpace=wrap;html=1;" parent="1" vertex="1">
          <mxGeometry x="320" y="20" width="120" height="80" as="geometry" />
        </mxCell>
        <mxCell id="_pkrtM7WGQT2VM3EGbci-15" value="end" style="ellipse;whiteSpace=wrap;html=1;" parent="1" vertex="1">
          <mxGeometry x="1100" y="1220" width="120" height="80" as="geometry" />
        </mxCell>
        <mxCell id="h4dxqBW4cxkd71x_Y7fE-2" style="edgeStyle=orthogonalEdgeStyle;rounded=0;orthogonalLoop=1;jettySize=auto;html=1;" parent="1" source="h4dxqBW4cxkd71x_Y7fE-1" target="h4dxqBW4cxkd71x_Y7fE-3" edge="1">
          <mxGeometry relative="1" as="geometry">
            <mxPoint x="370" y="300" as="targetPoint" />
            <Array as="points">
              <mxPoint x="360" y="265" />
              <mxPoint x="371" y="265" />
            </Array>
          </mxGeometry>
        </mxCell>
        <mxCell id="5WBOrIBXgoEbjMl5jcfK-3" value="" style="edgeStyle=orthogonalEdgeStyle;rounded=0;orthogonalLoop=1;jettySize=auto;html=1;" edge="1" parent="1" source="h4dxqBW4cxkd71x_Y7fE-1" target="5WBOrIBXgoEbjMl5jcfK-2">
          <mxGeometry relative="1" as="geometry" />
        </mxCell>
        <mxCell id="5WBOrIBXgoEbjMl5jcfK-17" style="edgeStyle=orthogonalEdgeStyle;rounded=0;orthogonalLoop=1;jettySize=auto;html=1;entryX=0.167;entryY=1;entryDx=0;entryDy=0;entryPerimeter=0;" edge="1" parent="1" source="h4dxqBW4cxkd71x_Y7fE-1" target="5WBOrIBXgoEbjMl5jcfK-19">
          <mxGeometry relative="1" as="geometry">
            <mxPoint x="600" as="targetPoint" />
          </mxGeometry>
        </mxCell>
        <mxCell id="5WBOrIBXgoEbjMl5jcfK-38" style="edgeStyle=orthogonalEdgeStyle;rounded=0;orthogonalLoop=1;jettySize=auto;html=1;entryX=0.25;entryY=1;entryDx=0;entryDy=0;" edge="1" parent="1" source="h4dxqBW4cxkd71x_Y7fE-1" target="5WBOrIBXgoEbjMl5jcfK-31">
          <mxGeometry relative="1" as="geometry" />
        </mxCell>
        <mxCell id="5WBOrIBXgoEbjMl5jcfK-59" style="edgeStyle=orthogonalEdgeStyle;rounded=0;orthogonalLoop=1;jettySize=auto;html=1;" edge="1" parent="1" source="h4dxqBW4cxkd71x_Y7fE-1" target="5WBOrIBXgoEbjMl5jcfK-48">
          <mxGeometry relative="1" as="geometry" />
        </mxCell>
        <mxCell id="5WBOrIBXgoEbjMl5jcfK-76" style="edgeStyle=orthogonalEdgeStyle;rounded=0;orthogonalLoop=1;jettySize=auto;html=1;entryX=0;entryY=0.5;entryDx=0;entryDy=0;" edge="1" parent="1" source="h4dxqBW4cxkd71x_Y7fE-1" target="5WBOrIBXgoEbjMl5jcfK-65">
          <mxGeometry relative="1" as="geometry">
            <Array as="points">
              <mxPoint x="1390" y="200" />
              <mxPoint x="1390" y="300" />
            </Array>
          </mxGeometry>
        </mxCell>
        <mxCell id="h4dxqBW4cxkd71x_Y7fE-1" value="a,choice" style="shape=parallelogram;perimeter=parallelogramPerimeter;whiteSpace=wrap;html=1;fixedSize=1;" parent="1" vertex="1">
          <mxGeometry x="300" y="170" width="120" height="60" as="geometry" />
        </mxCell>
        <mxCell id="h4dxqBW4cxkd71x_Y7fE-33" style="edgeStyle=orthogonalEdgeStyle;rounded=0;orthogonalLoop=1;jettySize=auto;html=1;entryX=0;entryY=0.5;entryDx=0;entryDy=0;" parent="1" source="h4dxqBW4cxkd71x_Y7fE-3" target="h4dxqBW4cxkd71x_Y7fE-9" edge="1">
          <mxGeometry relative="1" as="geometry" />
        </mxCell>
        <mxCell id="h4dxqBW4cxkd71x_Y7fE-34" style="edgeStyle=orthogonalEdgeStyle;rounded=0;orthogonalLoop=1;jettySize=auto;html=1;entryX=0;entryY=0.5;entryDx=0;entryDy=0;" parent="1" source="h4dxqBW4cxkd71x_Y7fE-3" target="h4dxqBW4cxkd71x_Y7fE-12" edge="1">
          <mxGeometry relative="1" as="geometry" />
        </mxCell>
        <mxCell id="h4dxqBW4cxkd71x_Y7fE-35" style="edgeStyle=orthogonalEdgeStyle;rounded=0;orthogonalLoop=1;jettySize=auto;html=1;entryX=0;entryY=0.5;entryDx=0;entryDy=0;" parent="1" source="h4dxqBW4cxkd71x_Y7fE-3" target="h4dxqBW4cxkd71x_Y7fE-15" edge="1">
          <mxGeometry relative="1" as="geometry" />
        </mxCell>
        <mxCell id="h4dxqBW4cxkd71x_Y7fE-36" style="edgeStyle=orthogonalEdgeStyle;rounded=0;orthogonalLoop=1;jettySize=auto;html=1;entryX=0;entryY=0.5;entryDx=0;entryDy=0;" parent="1" source="h4dxqBW4cxkd71x_Y7fE-3" target="h4dxqBW4cxkd71x_Y7fE-18" edge="1">
          <mxGeometry relative="1" as="geometry" />
        </mxCell>
        <mxCell id="h4dxqBW4cxkd71x_Y7fE-41" style="edgeStyle=orthogonalEdgeStyle;rounded=0;orthogonalLoop=1;jettySize=auto;html=1;entryX=0;entryY=0.5;entryDx=0;entryDy=0;" parent="1" source="h4dxqBW4cxkd71x_Y7fE-3" target="h4dxqBW4cxkd71x_Y7fE-31" edge="1">
          <mxGeometry relative="1" as="geometry" />
        </mxCell>
        <mxCell id="h4dxqBW4cxkd71x_Y7fE-3" value="choice=?" style="rhombus;whiteSpace=wrap;html=1;" parent="1" vertex="1">
          <mxGeometry x="310" y="360" width="116" height="100" as="geometry" />
        </mxCell>
        <mxCell id="h4dxqBW4cxkd71x_Y7fE-7" style="edgeStyle=orthogonalEdgeStyle;rounded=0;orthogonalLoop=1;jettySize=auto;html=1;" parent="1" source="h4dxqBW4cxkd71x_Y7fE-4" target="h4dxqBW4cxkd71x_Y7fE-6" edge="1">
          <mxGeometry relative="1" as="geometry" />
        </mxCell>
        <mxCell id="h4dxqBW4cxkd71x_Y7fE-4" value="choice=1" style="rhombus;whiteSpace=wrap;html=1;" parent="1" vertex="1">
          <mxGeometry x="560" y="365" width="80" height="80" as="geometry" />
        </mxCell>
        <mxCell id="h4dxqBW4cxkd71x_Y7fE-5" style="edgeStyle=orthogonalEdgeStyle;rounded=0;orthogonalLoop=1;jettySize=auto;html=1;entryX=0.063;entryY=0.413;entryDx=0;entryDy=0;entryPerimeter=0;" parent="1" source="h4dxqBW4cxkd71x_Y7fE-3" target="h4dxqBW4cxkd71x_Y7fE-4" edge="1">
          <mxGeometry relative="1" as="geometry" />
        </mxCell>
        <mxCell id="h4dxqBW4cxkd71x_Y7fE-6" value="one(a)" style="shape=parallelogram;perimeter=parallelogramPerimeter;whiteSpace=wrap;html=1;fixedSize=1;" parent="1" vertex="1">
          <mxGeometry x="740" y="375" width="120" height="60" as="geometry" />
        </mxCell>
        <mxCell id="h4dxqBW4cxkd71x_Y7fE-8" style="edgeStyle=orthogonalEdgeStyle;rounded=0;orthogonalLoop=1;jettySize=auto;html=1;" parent="1" source="h4dxqBW4cxkd71x_Y7fE-9" target="h4dxqBW4cxkd71x_Y7fE-10" edge="1">
          <mxGeometry relative="1" as="geometry" />
        </mxCell>
        <mxCell id="h4dxqBW4cxkd71x_Y7fE-9" value="choice=2" style="rhombus;whiteSpace=wrap;html=1;" parent="1" vertex="1">
          <mxGeometry x="560" y="505" width="80" height="80" as="geometry" />
        </mxCell>
        <mxCell id="h4dxqBW4cxkd71x_Y7fE-10" value="two(a)" style="shape=parallelogram;perimeter=parallelogramPerimeter;whiteSpace=wrap;html=1;fixedSize=1;" parent="1" vertex="1">
          <mxGeometry x="740" y="515" width="120" height="60" as="geometry" />
        </mxCell>
        <mxCell id="h4dxqBW4cxkd71x_Y7fE-11" style="edgeStyle=orthogonalEdgeStyle;rounded=0;orthogonalLoop=1;jettySize=auto;html=1;" parent="1" source="h4dxqBW4cxkd71x_Y7fE-12" target="h4dxqBW4cxkd71x_Y7fE-13" edge="1">
          <mxGeometry relative="1" as="geometry" />
        </mxCell>
        <mxCell id="h4dxqBW4cxkd71x_Y7fE-12" value="choice=3" style="rhombus;whiteSpace=wrap;html=1;" parent="1" vertex="1">
          <mxGeometry x="560" y="630" width="80" height="80" as="geometry" />
        </mxCell>
        <mxCell id="h4dxqBW4cxkd71x_Y7fE-13" value="three(a)" style="shape=parallelogram;perimeter=parallelogramPerimeter;whiteSpace=wrap;html=1;fixedSize=1;" parent="1" vertex="1">
          <mxGeometry x="740" y="640" width="120" height="60" as="geometry" />
        </mxCell>
        <mxCell id="h4dxqBW4cxkd71x_Y7fE-14" style="edgeStyle=orthogonalEdgeStyle;rounded=0;orthogonalLoop=1;jettySize=auto;html=1;" parent="1" source="h4dxqBW4cxkd71x_Y7fE-15" target="h4dxqBW4cxkd71x_Y7fE-16" edge="1">
          <mxGeometry relative="1" as="geometry" />
        </mxCell>
        <mxCell id="h4dxqBW4cxkd71x_Y7fE-15" value="choice=4" style="rhombus;whiteSpace=wrap;html=1;" parent="1" vertex="1">
          <mxGeometry x="560" y="760" width="80" height="80" as="geometry" />
        </mxCell>
        <mxCell id="h4dxqBW4cxkd71x_Y7fE-16" value="four(a)" style="shape=parallelogram;perimeter=parallelogramPerimeter;whiteSpace=wrap;html=1;fixedSize=1;" parent="1" vertex="1">
          <mxGeometry x="740" y="770" width="120" height="60" as="geometry" />
        </mxCell>
        <mxCell id="h4dxqBW4cxkd71x_Y7fE-17" style="edgeStyle=orthogonalEdgeStyle;rounded=0;orthogonalLoop=1;jettySize=auto;html=1;" parent="1" source="h4dxqBW4cxkd71x_Y7fE-18" target="h4dxqBW4cxkd71x_Y7fE-19" edge="1">
          <mxGeometry relative="1" as="geometry" />
        </mxCell>
        <mxCell id="h4dxqBW4cxkd71x_Y7fE-18" value="choice=5" style="rhombus;whiteSpace=wrap;html=1;" parent="1" vertex="1">
          <mxGeometry x="560" y="860" width="80" height="80" as="geometry" />
        </mxCell>
        <mxCell id="h4dxqBW4cxkd71x_Y7fE-19" value="five(a)" style="shape=parallelogram;perimeter=parallelogramPerimeter;whiteSpace=wrap;html=1;fixedSize=1;" parent="1" vertex="1">
          <mxGeometry x="740" y="870" width="120" height="60" as="geometry" />
        </mxCell>
        <mxCell id="h4dxqBW4cxkd71x_Y7fE-27" style="edgeStyle=orthogonalEdgeStyle;rounded=0;orthogonalLoop=1;jettySize=auto;html=1;entryX=0;entryY=0.5;entryDx=0;entryDy=0;" parent="1" source="h4dxqBW4cxkd71x_Y7fE-28" target="_pkrtM7WGQT2VM3EGbci-15" edge="1">
          <mxGeometry relative="1" as="geometry">
            <mxPoint x="740" y="1250" as="targetPoint" />
          </mxGeometry>
        </mxCell>
        <mxCell id="h4dxqBW4cxkd71x_Y7fE-28" value="choice=6" style="rhombus;whiteSpace=wrap;html=1;" parent="1" vertex="1">
          <mxGeometry x="550" y="1210" width="80" height="80" as="geometry" />
        </mxCell>
        <mxCell id="h4dxqBW4cxkd71x_Y7fE-30" style="edgeStyle=orthogonalEdgeStyle;rounded=0;orthogonalLoop=1;jettySize=auto;html=1;entryX=0;entryY=0.5;entryDx=0;entryDy=0;" parent="1" source="h4dxqBW4cxkd71x_Y7fE-31" target="h4dxqBW4cxkd71x_Y7fE-42" edge="1">
          <mxGeometry relative="1" as="geometry">
            <mxPoint x="740" y="1370" as="targetPoint" />
          </mxGeometry>
        </mxCell>
        <mxCell id="h4dxqBW4cxkd71x_Y7fE-31" value="choice: default" style="rhombus;whiteSpace=wrap;html=1;" parent="1" vertex="1">
          <mxGeometry x="540" y="1330" width="120" height="90" as="geometry" />
        </mxCell>
        <mxCell id="h4dxqBW4cxkd71x_Y7fE-40" style="edgeStyle=orthogonalEdgeStyle;rounded=0;orthogonalLoop=1;jettySize=auto;html=1;entryX=0;entryY=0.5;entryDx=0;entryDy=0;" parent="1" source="h4dxqBW4cxkd71x_Y7fE-3" target="h4dxqBW4cxkd71x_Y7fE-28" edge="1">
          <mxGeometry relative="1" as="geometry">
            <Array as="points">
              <mxPoint x="488" y="410" />
              <mxPoint x="488" y="1250" />
            </Array>
          </mxGeometry>
        </mxCell>
        <mxCell id="h4dxqBW4cxkd71x_Y7fE-53" style="edgeStyle=orthogonalEdgeStyle;rounded=0;orthogonalLoop=1;jettySize=auto;html=1;" parent="1" source="h4dxqBW4cxkd71x_Y7fE-42" edge="1">
          <mxGeometry relative="1" as="geometry">
            <mxPoint x="950" y="256" as="targetPoint" />
          </mxGeometry>
        </mxCell>
        <mxCell id="h4dxqBW4cxkd71x_Y7fE-42" value="&lt;br&gt;&lt;div style=&quot;color: rgb(212, 212, 212); background-color: rgb(30, 30, 30); font-family: Consolas, &amp;quot;Courier New&amp;quot;, monospace; font-weight: normal; font-size: 14px; line-height: 19px;&quot;&gt;&lt;div&gt;&lt;span style=&quot;color: #d4d4d4;&quot;&gt;(&lt;/span&gt;&lt;span style=&quot;color: #ce9178;&quot;&gt;&quot;Vui long chon tu 1-6\n&quot;&lt;/span&gt;&lt;span style=&quot;color: #d4d4d4;&quot;&gt;)&lt;/span&gt;&lt;/div&gt;&lt;/div&gt;&lt;br&gt;" style="ellipse;whiteSpace=wrap;html=1;" parent="1" vertex="1">
          <mxGeometry x="760" y="1350" width="120" height="80" as="geometry" />
        </mxCell>
        <mxCell id="h4dxqBW4cxkd71x_Y7fE-46" value="" style="endArrow=classic;html=1;rounded=0;exitX=1;exitY=0.5;exitDx=0;exitDy=0;" parent="1" source="h4dxqBW4cxkd71x_Y7fE-6" edge="1">
          <mxGeometry width="50" height="50" relative="1" as="geometry">
            <mxPoint x="520" y="390" as="sourcePoint" />
            <mxPoint x="370" y="290" as="targetPoint" />
            <Array as="points">
              <mxPoint x="960" y="250" />
            </Array>
          </mxGeometry>
        </mxCell>
        <mxCell id="h4dxqBW4cxkd71x_Y7fE-47" value="" style="curved=1;endArrow=classic;html=1;rounded=0;exitX=1;exitY=0.5;exitDx=0;exitDy=0;" parent="1" source="h4dxqBW4cxkd71x_Y7fE-10" edge="1">
          <mxGeometry width="50" height="50" relative="1" as="geometry">
            <mxPoint x="860" y="570" as="sourcePoint" />
            <mxPoint x="910" y="320" as="targetPoint" />
            <Array as="points">
              <mxPoint x="910" y="570" />
              <mxPoint x="860" y="520" />
            </Array>
          </mxGeometry>
        </mxCell>
        <mxCell id="h4dxqBW4cxkd71x_Y7fE-48" value="" style="curved=1;endArrow=classic;html=1;rounded=0;exitX=1;exitY=0;exitDx=0;exitDy=0;" parent="1" source="h4dxqBW4cxkd71x_Y7fE-13" edge="1">
          <mxGeometry width="50" height="50" relative="1" as="geometry">
            <mxPoint x="860" y="630" as="sourcePoint" />
            <mxPoint x="920" y="307" as="targetPoint" />
            <Array as="points">
              <mxPoint x="910" y="630" />
              <mxPoint x="860" y="580" />
            </Array>
          </mxGeometry>
        </mxCell>
        <mxCell id="h4dxqBW4cxkd71x_Y7fE-49" value="" style="endArrow=classic;html=1;rounded=0;exitX=1;exitY=0.5;exitDx=0;exitDy=0;" parent="1" source="h4dxqBW4cxkd71x_Y7fE-16" edge="1">
          <mxGeometry width="50" height="50" relative="1" as="geometry">
            <mxPoint x="860" y="820" as="sourcePoint" />
            <mxPoint x="890" y="339" as="targetPoint" />
          </mxGeometry>
        </mxCell>
        <mxCell id="h4dxqBW4cxkd71x_Y7fE-50" value="" style="endArrow=classic;html=1;rounded=0;exitX=1;exitY=0.75;exitDx=0;exitDy=0;" parent="1" source="h4dxqBW4cxkd71x_Y7fE-19" edge="1">
          <mxGeometry width="50" height="50" relative="1" as="geometry">
            <mxPoint x="860" y="970" as="sourcePoint" />
            <mxPoint x="920" y="310" as="targetPoint" />
          </mxGeometry>
        </mxCell>
        <mxCell id="5WBOrIBXgoEbjMl5jcfK-9" style="edgeStyle=orthogonalEdgeStyle;rounded=0;orthogonalLoop=1;jettySize=auto;html=1;entryX=0.35;entryY=1.017;entryDx=0;entryDy=0;entryPerimeter=0;" edge="1" parent="1" source="5WBOrIBXgoEbjMl5jcfK-2" target="5WBOrIBXgoEbjMl5jcfK-7">
          <mxGeometry relative="1" as="geometry">
            <mxPoint x="700" y="-170" as="targetPoint" />
          </mxGeometry>
        </mxCell>
        <mxCell id="5WBOrIBXgoEbjMl5jcfK-2" value="int one(int a)" style="shape=parallelogram;perimeter=parallelogramPerimeter;whiteSpace=wrap;html=1;fixedSize=1;" vertex="1" parent="1">
          <mxGeometry x="460" y="-140" width="120" height="60" as="geometry" />
        </mxCell>
        <mxCell id="5WBOrIBXgoEbjMl5jcfK-11" style="edgeStyle=orthogonalEdgeStyle;rounded=0;orthogonalLoop=1;jettySize=auto;html=1;entryX=0;entryY=0.5;entryDx=0;entryDy=0;" edge="1" parent="1" source="5WBOrIBXgoEbjMl5jcfK-7" target="5WBOrIBXgoEbjMl5jcfK-10">
          <mxGeometry relative="1" as="geometry" />
        </mxCell>
        <mxCell id="5WBOrIBXgoEbjMl5jcfK-7" value="&lt;div&gt;i=a&lt;/div&gt;&lt;div&gt;&lt;br&gt;&lt;/div&gt;" style="shape=parallelogram;perimeter=parallelogramPerimeter;whiteSpace=wrap;html=1;fixedSize=1;" vertex="1" parent="1">
          <mxGeometry x="660" y="-240" width="120" height="60" as="geometry" />
        </mxCell>
        <mxCell id="5WBOrIBXgoEbjMl5jcfK-15" value="" style="edgeStyle=orthogonalEdgeStyle;rounded=0;orthogonalLoop=1;jettySize=auto;html=1;" edge="1" parent="1" source="5WBOrIBXgoEbjMl5jcfK-10" target="5WBOrIBXgoEbjMl5jcfK-14">
          <mxGeometry relative="1" as="geometry" />
        </mxCell>
        <mxCell id="5WBOrIBXgoEbjMl5jcfK-10" value="i&amp;gt;=2" style="rhombus;whiteSpace=wrap;html=1;" vertex="1" parent="1">
          <mxGeometry x="870" y="-250" width="80" height="80" as="geometry" />
        </mxCell>
        <mxCell id="5WBOrIBXgoEbjMl5jcfK-14" value="&lt;div&gt;i-=2&lt;/div&gt;&lt;div&gt;printf i&lt;/div&gt;&lt;div&gt;&lt;br&gt;&lt;/div&gt;" style="whiteSpace=wrap;html=1;" vertex="1" parent="1">
          <mxGeometry x="1010" y="-240" width="120" height="60" as="geometry" />
        </mxCell>
        <mxCell id="5WBOrIBXgoEbjMl5jcfK-26" style="edgeStyle=orthogonalEdgeStyle;rounded=0;orthogonalLoop=1;jettySize=auto;html=1;" edge="1" parent="1" source="5WBOrIBXgoEbjMl5jcfK-19" target="5WBOrIBXgoEbjMl5jcfK-21">
          <mxGeometry relative="1" as="geometry" />
        </mxCell>
        <mxCell id="5WBOrIBXgoEbjMl5jcfK-19" value="&lt;br&gt;int two(int a)&lt;br&gt;" style="shape=parallelogram;perimeter=parallelogramPerimeter;whiteSpace=wrap;html=1;fixedSize=1;" vertex="1" parent="1">
          <mxGeometry x="570" y="-30" width="120" height="60" as="geometry" />
        </mxCell>
        <mxCell id="5WBOrIBXgoEbjMl5jcfK-20" style="edgeStyle=orthogonalEdgeStyle;rounded=0;orthogonalLoop=1;jettySize=auto;html=1;entryX=0;entryY=0.5;entryDx=0;entryDy=0;" edge="1" parent="1" source="5WBOrIBXgoEbjMl5jcfK-21" target="5WBOrIBXgoEbjMl5jcfK-23">
          <mxGeometry relative="1" as="geometry" />
        </mxCell>
        <mxCell id="5WBOrIBXgoEbjMl5jcfK-21" value="&lt;div&gt;i=a&lt;/div&gt;&lt;div&gt;sum&lt;br&gt;&lt;/div&gt;" style="shape=parallelogram;perimeter=parallelogramPerimeter;whiteSpace=wrap;html=1;fixedSize=1;" vertex="1" parent="1">
          <mxGeometry x="740" y="-30" width="120" height="60" as="geometry" />
        </mxCell>
        <mxCell id="5WBOrIBXgoEbjMl5jcfK-22" value="" style="edgeStyle=orthogonalEdgeStyle;rounded=0;orthogonalLoop=1;jettySize=auto;html=1;" edge="1" parent="1" source="5WBOrIBXgoEbjMl5jcfK-23" target="5WBOrIBXgoEbjMl5jcfK-24">
          <mxGeometry relative="1" as="geometry" />
        </mxCell>
        <mxCell id="5WBOrIBXgoEbjMl5jcfK-23" value="i&amp;gt;=1" style="rhombus;whiteSpace=wrap;html=1;" vertex="1" parent="1">
          <mxGeometry x="950" y="-40" width="80" height="80" as="geometry" />
        </mxCell>
        <mxCell id="5WBOrIBXgoEbjMl5jcfK-24" value="&lt;div&gt;i--&lt;/div&gt;&lt;div&gt;printf i&lt;/div&gt;&lt;div&gt;sum+=i&lt;br&gt;&lt;/div&gt;&lt;div&gt;&lt;br&gt;&lt;/div&gt;" style="whiteSpace=wrap;html=1;" vertex="1" parent="1">
          <mxGeometry x="1110" y="-40" width="120" height="60" as="geometry" />
        </mxCell>
        <mxCell id="5WBOrIBXgoEbjMl5jcfK-28" value="" style="endArrow=classic;html=1;rounded=0;exitX=0.5;exitY=1;exitDx=0;exitDy=0;" edge="1" parent="1" source="5WBOrIBXgoEbjMl5jcfK-14">
          <mxGeometry width="50" height="50" relative="1" as="geometry">
            <mxPoint x="830" y="-130" as="sourcePoint" />
            <mxPoint x="820" y="-210" as="targetPoint" />
            <Array as="points">
              <mxPoint x="1030" y="-120" />
              <mxPoint x="880" y="-120" />
            </Array>
          </mxGeometry>
        </mxCell>
        <mxCell id="5WBOrIBXgoEbjMl5jcfK-29" value="" style="endArrow=classic;html=1;rounded=0;exitX=0.5;exitY=1;exitDx=0;exitDy=0;" edge="1" parent="1" source="5WBOrIBXgoEbjMl5jcfK-24">
          <mxGeometry width="50" height="50" relative="1" as="geometry">
            <mxPoint x="910" as="sourcePoint" />
            <mxPoint x="890" as="targetPoint" />
            <Array as="points">
              <mxPoint x="1110" y="100" />
              <mxPoint x="980" y="110" />
            </Array>
          </mxGeometry>
        </mxCell>
        <mxCell id="5WBOrIBXgoEbjMl5jcfK-30" style="edgeStyle=orthogonalEdgeStyle;rounded=0;orthogonalLoop=1;jettySize=auto;html=1;entryX=0.35;entryY=1.017;entryDx=0;entryDy=0;entryPerimeter=0;" edge="1" parent="1" source="5WBOrIBXgoEbjMl5jcfK-31" target="5WBOrIBXgoEbjMl5jcfK-33">
          <mxGeometry relative="1" as="geometry">
            <mxPoint x="-80" y="-340" as="targetPoint" />
          </mxGeometry>
        </mxCell>
        <mxCell id="5WBOrIBXgoEbjMl5jcfK-31" value="int three(int a)" style="shape=parallelogram;perimeter=parallelogramPerimeter;whiteSpace=wrap;html=1;fixedSize=1;" vertex="1" parent="1">
          <mxGeometry x="-320" y="-310" width="120" height="60" as="geometry" />
        </mxCell>
        <mxCell id="5WBOrIBXgoEbjMl5jcfK-32" style="edgeStyle=orthogonalEdgeStyle;rounded=0;orthogonalLoop=1;jettySize=auto;html=1;entryX=0;entryY=0.5;entryDx=0;entryDy=0;" edge="1" parent="1" source="5WBOrIBXgoEbjMl5jcfK-33" target="5WBOrIBXgoEbjMl5jcfK-35">
          <mxGeometry relative="1" as="geometry" />
        </mxCell>
        <mxCell id="5WBOrIBXgoEbjMl5jcfK-33" value="&lt;div&gt;i=a&lt;/div&gt;&lt;div&gt;&lt;br&gt;&lt;/div&gt;" style="shape=parallelogram;perimeter=parallelogramPerimeter;whiteSpace=wrap;html=1;fixedSize=1;" vertex="1" parent="1">
          <mxGeometry x="-120" y="-410" width="120" height="60" as="geometry" />
        </mxCell>
        <mxCell id="5WBOrIBXgoEbjMl5jcfK-34" value="" style="edgeStyle=orthogonalEdgeStyle;rounded=0;orthogonalLoop=1;jettySize=auto;html=1;entryX=0;entryY=0.5;entryDx=0;entryDy=0;" edge="1" parent="1" source="5WBOrIBXgoEbjMl5jcfK-35" target="5WBOrIBXgoEbjMl5jcfK-40">
          <mxGeometry relative="1" as="geometry">
            <mxPoint x="281.03999999999996" y="-372" as="targetPoint" />
          </mxGeometry>
        </mxCell>
        <mxCell id="5WBOrIBXgoEbjMl5jcfK-35" value="i&amp;gt;=2" style="rhombus;whiteSpace=wrap;html=1;" vertex="1" parent="1">
          <mxGeometry x="90" y="-420" width="80" height="80" as="geometry" />
        </mxCell>
        <mxCell id="5WBOrIBXgoEbjMl5jcfK-43" style="edgeStyle=orthogonalEdgeStyle;rounded=0;orthogonalLoop=1;jettySize=auto;html=1;entryX=0;entryY=0.5;entryDx=0;entryDy=0;" edge="1" parent="1" source="5WBOrIBXgoEbjMl5jcfK-40" target="5WBOrIBXgoEbjMl5jcfK-42">
          <mxGeometry relative="1" as="geometry" />
        </mxCell>
        <mxCell id="5WBOrIBXgoEbjMl5jcfK-40" value="i--" style="shape=parallelogram;perimeter=parallelogramPerimeter;whiteSpace=wrap;html=1;fixedSize=1;" vertex="1" parent="1">
          <mxGeometry x="270" y="-400" width="120" height="60" as="geometry" />
        </mxCell>
        <mxCell id="5WBOrIBXgoEbjMl5jcfK-45" style="edgeStyle=orthogonalEdgeStyle;rounded=0;orthogonalLoop=1;jettySize=auto;html=1;entryX=0;entryY=0.75;entryDx=0;entryDy=0;" edge="1" parent="1" source="5WBOrIBXgoEbjMl5jcfK-42" target="5WBOrIBXgoEbjMl5jcfK-44">
          <mxGeometry relative="1" as="geometry" />
        </mxCell>
        <mxCell id="5WBOrIBXgoEbjMl5jcfK-42" value="i%2==0&amp;amp;&amp;amp;a%i==0" style="rhombus;whiteSpace=wrap;html=1;" vertex="1" parent="1">
          <mxGeometry x="430" y="-430" width="100" height="90" as="geometry" />
        </mxCell>
        <mxCell id="5WBOrIBXgoEbjMl5jcfK-78" style="edgeStyle=orthogonalEdgeStyle;rounded=0;orthogonalLoop=1;jettySize=auto;html=1;" edge="1" parent="1" source="5WBOrIBXgoEbjMl5jcfK-44">
          <mxGeometry relative="1" as="geometry">
            <mxPoint x="420" y="-510" as="targetPoint" />
            <Array as="points">
              <mxPoint x="650" y="-490" />
              <mxPoint x="421" y="-490" />
              <mxPoint x="421" y="-510" />
            </Array>
          </mxGeometry>
        </mxCell>
        <mxCell id="5WBOrIBXgoEbjMl5jcfK-44" value="printf i" style="shape=parallelogram;perimeter=parallelogramPerimeter;whiteSpace=wrap;html=1;fixedSize=1;" vertex="1" parent="1">
          <mxGeometry x="590" y="-410" width="120" height="60" as="geometry" />
        </mxCell>
        <mxCell id="5WBOrIBXgoEbjMl5jcfK-46" value="false" style="endArrow=classic;html=1;rounded=0;exitX=0;exitY=0;exitDx=0;exitDy=0;" edge="1" parent="1" source="5WBOrIBXgoEbjMl5jcfK-42">
          <mxGeometry width="50" height="50" relative="1" as="geometry">
            <mxPoint x="300" y="-280" as="sourcePoint" />
            <mxPoint x="220" y="-380" as="targetPoint" />
            <Array as="points">
              <mxPoint x="410" y="-540" />
              <mxPoint x="290" y="-540" />
            </Array>
          </mxGeometry>
        </mxCell>
        <mxCell id="5WBOrIBXgoEbjMl5jcfK-47" style="edgeStyle=orthogonalEdgeStyle;rounded=0;orthogonalLoop=1;jettySize=auto;html=1;entryX=0.35;entryY=1.017;entryDx=0;entryDy=0;entryPerimeter=0;" edge="1" parent="1" source="5WBOrIBXgoEbjMl5jcfK-48" target="5WBOrIBXgoEbjMl5jcfK-50">
          <mxGeometry relative="1" as="geometry">
            <mxPoint x="-535" y="565" as="targetPoint" />
          </mxGeometry>
        </mxCell>
        <mxCell id="5WBOrIBXgoEbjMl5jcfK-48" value="int four(int a)" style="shape=parallelogram;perimeter=parallelogramPerimeter;whiteSpace=wrap;html=1;fixedSize=1;" vertex="1" parent="1">
          <mxGeometry x="-775" y="595" width="120" height="60" as="geometry" />
        </mxCell>
        <mxCell id="5WBOrIBXgoEbjMl5jcfK-49" style="edgeStyle=orthogonalEdgeStyle;rounded=0;orthogonalLoop=1;jettySize=auto;html=1;entryX=0;entryY=0.5;entryDx=0;entryDy=0;" edge="1" parent="1" source="5WBOrIBXgoEbjMl5jcfK-50" target="5WBOrIBXgoEbjMl5jcfK-52">
          <mxGeometry relative="1" as="geometry" />
        </mxCell>
        <mxCell id="5WBOrIBXgoEbjMl5jcfK-50" value="&lt;div&gt;i=a&lt;/div&gt;&lt;div&gt;count=0&lt;br&gt;&lt;/div&gt;" style="shape=parallelogram;perimeter=parallelogramPerimeter;whiteSpace=wrap;html=1;fixedSize=1;" vertex="1" parent="1">
          <mxGeometry x="-575" y="495" width="120" height="60" as="geometry" />
        </mxCell>
        <mxCell id="5WBOrIBXgoEbjMl5jcfK-51" value="" style="edgeStyle=orthogonalEdgeStyle;rounded=0;orthogonalLoop=1;jettySize=auto;html=1;entryX=0;entryY=0.5;entryDx=0;entryDy=0;" edge="1" parent="1" source="5WBOrIBXgoEbjMl5jcfK-52" target="5WBOrIBXgoEbjMl5jcfK-54">
          <mxGeometry relative="1" as="geometry">
            <mxPoint x="-173.96000000000004" y="533" as="targetPoint" />
          </mxGeometry>
        </mxCell>
        <mxCell id="5WBOrIBXgoEbjMl5jcfK-60" style="edgeStyle=orthogonalEdgeStyle;rounded=0;orthogonalLoop=1;jettySize=auto;html=1;entryX=0.308;entryY=0.05;entryDx=0;entryDy=0;entryPerimeter=0;" edge="1" parent="1" source="5WBOrIBXgoEbjMl5jcfK-52" target="5WBOrIBXgoEbjMl5jcfK-63">
          <mxGeometry relative="1" as="geometry">
            <mxPoint x="-290" y="710" as="targetPoint" />
          </mxGeometry>
        </mxCell>
        <mxCell id="5WBOrIBXgoEbjMl5jcfK-62" value="false" style="edgeLabel;html=1;align=center;verticalAlign=middle;resizable=0;points=[];" vertex="1" connectable="0" parent="5WBOrIBXgoEbjMl5jcfK-60">
          <mxGeometry x="-0.4111" y="3" relative="1" as="geometry">
            <mxPoint as="offset" />
          </mxGeometry>
        </mxCell>
        <mxCell id="5WBOrIBXgoEbjMl5jcfK-52" value="i&amp;gt;=2" style="rhombus;whiteSpace=wrap;html=1;" vertex="1" parent="1">
          <mxGeometry x="-365" y="485" width="80" height="80" as="geometry" />
        </mxCell>
        <mxCell id="5WBOrIBXgoEbjMl5jcfK-53" style="edgeStyle=orthogonalEdgeStyle;rounded=0;orthogonalLoop=1;jettySize=auto;html=1;entryX=0;entryY=0.5;entryDx=0;entryDy=0;" edge="1" parent="1" source="5WBOrIBXgoEbjMl5jcfK-54" target="5WBOrIBXgoEbjMl5jcfK-56">
          <mxGeometry relative="1" as="geometry" />
        </mxCell>
        <mxCell id="5WBOrIBXgoEbjMl5jcfK-54" value="i--" style="shape=parallelogram;perimeter=parallelogramPerimeter;whiteSpace=wrap;html=1;fixedSize=1;" vertex="1" parent="1">
          <mxGeometry x="-185" y="505" width="120" height="60" as="geometry" />
        </mxCell>
        <mxCell id="5WBOrIBXgoEbjMl5jcfK-55" style="edgeStyle=orthogonalEdgeStyle;rounded=0;orthogonalLoop=1;jettySize=auto;html=1;entryX=0;entryY=0.75;entryDx=0;entryDy=0;" edge="1" parent="1" source="5WBOrIBXgoEbjMl5jcfK-56" target="5WBOrIBXgoEbjMl5jcfK-57">
          <mxGeometry relative="1" as="geometry" />
        </mxCell>
        <mxCell id="5WBOrIBXgoEbjMl5jcfK-56" value="&lt;div&gt;i%2!=0&lt;/div&gt;&lt;div&gt;++count&lt;br&gt;&lt;/div&gt;" style="rhombus;whiteSpace=wrap;html=1;" vertex="1" parent="1">
          <mxGeometry x="-25" y="475" width="100" height="90" as="geometry" />
        </mxCell>
        <mxCell id="5WBOrIBXgoEbjMl5jcfK-77" style="edgeStyle=orthogonalEdgeStyle;rounded=0;orthogonalLoop=1;jettySize=auto;html=1;" edge="1" parent="1" source="5WBOrIBXgoEbjMl5jcfK-57">
          <mxGeometry relative="1" as="geometry">
            <mxPoint x="-40" y="380" as="targetPoint" />
            <Array as="points">
              <mxPoint x="195" y="360" />
            </Array>
          </mxGeometry>
        </mxCell>
        <mxCell id="5WBOrIBXgoEbjMl5jcfK-57" value="printf i" style="shape=parallelogram;perimeter=parallelogramPerimeter;whiteSpace=wrap;html=1;fixedSize=1;" vertex="1" parent="1">
          <mxGeometry x="135" y="495" width="120" height="60" as="geometry" />
        </mxCell>
        <mxCell id="5WBOrIBXgoEbjMl5jcfK-58" value="false" style="endArrow=classic;html=1;rounded=0;exitX=0;exitY=0;exitDx=0;exitDy=0;" edge="1" parent="1" source="5WBOrIBXgoEbjMl5jcfK-56">
          <mxGeometry width="50" height="50" relative="1" as="geometry">
            <mxPoint x="-155" y="625" as="sourcePoint" />
            <mxPoint x="-235" y="525" as="targetPoint" />
            <Array as="points">
              <mxPoint x="-45" y="365" />
              <mxPoint x="-165" y="365" />
            </Array>
          </mxGeometry>
        </mxCell>
        <mxCell id="5WBOrIBXgoEbjMl5jcfK-63" value="printf count" style="rounded=1;whiteSpace=wrap;html=1;" vertex="1" parent="1">
          <mxGeometry x="-330" y="750" width="120" height="60" as="geometry" />
        </mxCell>
        <mxCell id="5WBOrIBXgoEbjMl5jcfK-64" style="edgeStyle=orthogonalEdgeStyle;rounded=0;orthogonalLoop=1;jettySize=auto;html=1;entryX=0.35;entryY=1.017;entryDx=0;entryDy=0;entryPerimeter=0;" edge="1" parent="1" source="5WBOrIBXgoEbjMl5jcfK-65" target="5WBOrIBXgoEbjMl5jcfK-67">
          <mxGeometry relative="1" as="geometry">
            <mxPoint x="1710" y="240" as="targetPoint" />
          </mxGeometry>
        </mxCell>
        <mxCell id="5WBOrIBXgoEbjMl5jcfK-65" value="int five(int a)" style="shape=parallelogram;perimeter=parallelogramPerimeter;whiteSpace=wrap;html=1;fixedSize=1;" vertex="1" parent="1">
          <mxGeometry x="1470" y="270" width="120" height="60" as="geometry" />
        </mxCell>
        <mxCell id="5WBOrIBXgoEbjMl5jcfK-66" style="edgeStyle=orthogonalEdgeStyle;rounded=0;orthogonalLoop=1;jettySize=auto;html=1;entryX=0;entryY=0.5;entryDx=0;entryDy=0;" edge="1" parent="1" source="5WBOrIBXgoEbjMl5jcfK-67" target="5WBOrIBXgoEbjMl5jcfK-69">
          <mxGeometry relative="1" as="geometry" />
        </mxCell>
        <mxCell id="5WBOrIBXgoEbjMl5jcfK-67" value="&lt;div&gt;i=a&lt;/div&gt;&lt;div&gt;&lt;br&gt;&lt;/div&gt;" style="shape=parallelogram;perimeter=parallelogramPerimeter;whiteSpace=wrap;html=1;fixedSize=1;" vertex="1" parent="1">
          <mxGeometry x="1670" y="170" width="120" height="60" as="geometry" />
        </mxCell>
        <mxCell id="5WBOrIBXgoEbjMl5jcfK-68" value="" style="edgeStyle=orthogonalEdgeStyle;rounded=0;orthogonalLoop=1;jettySize=auto;html=1;entryX=0;entryY=0.5;entryDx=0;entryDy=0;" edge="1" parent="1" source="5WBOrIBXgoEbjMl5jcfK-69" target="5WBOrIBXgoEbjMl5jcfK-71">
          <mxGeometry relative="1" as="geometry">
            <mxPoint x="2071.04" y="208" as="targetPoint" />
          </mxGeometry>
        </mxCell>
        <mxCell id="5WBOrIBXgoEbjMl5jcfK-69" value="i&amp;gt;=2" style="rhombus;whiteSpace=wrap;html=1;" vertex="1" parent="1">
          <mxGeometry x="1880" y="160" width="80" height="80" as="geometry" />
        </mxCell>
        <mxCell id="5WBOrIBXgoEbjMl5jcfK-70" style="edgeStyle=orthogonalEdgeStyle;rounded=0;orthogonalLoop=1;jettySize=auto;html=1;entryX=0;entryY=0.5;entryDx=0;entryDy=0;" edge="1" parent="1" source="5WBOrIBXgoEbjMl5jcfK-71" target="5WBOrIBXgoEbjMl5jcfK-73">
          <mxGeometry relative="1" as="geometry" />
        </mxCell>
        <mxCell id="5WBOrIBXgoEbjMl5jcfK-71" value="i--" style="shape=parallelogram;perimeter=parallelogramPerimeter;whiteSpace=wrap;html=1;fixedSize=1;" vertex="1" parent="1">
          <mxGeometry x="2060" y="180" width="120" height="60" as="geometry" />
        </mxCell>
        <mxCell id="5WBOrIBXgoEbjMl5jcfK-72" style="edgeStyle=orthogonalEdgeStyle;rounded=0;orthogonalLoop=1;jettySize=auto;html=1;entryX=0;entryY=0.75;entryDx=0;entryDy=0;" edge="1" parent="1" source="5WBOrIBXgoEbjMl5jcfK-73" target="5WBOrIBXgoEbjMl5jcfK-74">
          <mxGeometry relative="1" as="geometry" />
        </mxCell>
        <mxCell id="5WBOrIBXgoEbjMl5jcfK-73" value="i%2==0" style="rhombus;whiteSpace=wrap;html=1;" vertex="1" parent="1">
          <mxGeometry x="2220" y="150" width="100" height="90" as="geometry" />
        </mxCell>
        <mxCell id="5WBOrIBXgoEbjMl5jcfK-74" value="printf i" style="shape=parallelogram;perimeter=parallelogramPerimeter;whiteSpace=wrap;html=1;fixedSize=1;" vertex="1" parent="1">
          <mxGeometry x="2380" y="170" width="120" height="60" as="geometry" />
        </mxCell>
        <mxCell id="5WBOrIBXgoEbjMl5jcfK-75" value="false" style="endArrow=classic;html=1;rounded=0;exitX=0;exitY=0;exitDx=0;exitDy=0;" edge="1" parent="1" source="5WBOrIBXgoEbjMl5jcfK-73">
          <mxGeometry width="50" height="50" relative="1" as="geometry">
            <mxPoint x="2090" y="300" as="sourcePoint" />
            <mxPoint x="2010" y="200" as="targetPoint" />
            <Array as="points">
              <mxPoint x="2200" y="40" />
              <mxPoint x="2080" y="40" />
            </Array>
          </mxGeometry>
        </mxCell>
      </root>
    </mxGraphModel>
  </diagram>
</mxfile>
